PathFileType	4	(X/Y/Z)	C:/Users/beibeiliu/ov580/test_trc\sequence.8_training_dense_right.trc
DataRate	CameraRate	NumFrames	NumMarkers	Units	OrigDataRate	OrigDataStartFrame	OrigNumFrames
120	120	10	19	mm	120	235	375
Frame#	Time	ThumbCMC			ThumbMCP			ThumbIP			ThumbTip			IndexMCP			IndexPIP			IndexTip			MiddleMCP			MiddlePIP			MiddleTip			RingMCP			RingPIP			RingTip			PinkyMCP			PinkyPIP			PinkyTip			BackHand1			BackHand2			BackHand3	
		X0	Y0	Z0	X1	Y1	Z1	X2	Y2	Z2	X3	Y3	Z3	X4	Y4	Z4	X5	Y5	Z5	X6	Y6	Z6	X7	Y7	Z7	X8	Y8	Z8	X9	Y9	Z9	X10	Y10	Z10	X11	Y11	Z11	X12	Y12	Z12	X13	Y13	Z13	X14	Y14	Z14	X15	Y15	Z15	X16	Y16	Z16	X17	Y17	Z17	X18	Y18	Z18	
234	1.95	151.649	20.1342	-12.0525	123.222	27.8358	-14.7922	104.336	39.8027	-21.6504	92.7914	49.8318	-25.7195	96.5483	-6.59629	-43.3505	86.1124	-2.44921	-18.4839	112.331	8.37879	-7.90626	99.2233	-22.2153	-34.3135	88.6905	-12.1428	-8.42856	122.07	-3.06804	-4.40848	103.204	-33.1528	-21.8172	101.849	-20.9087	2.24023	132.296	-10.499	-1.34259	112.281	-46.7251	-9.3553	110.775	-27.4166	4.23802	132.524	-16.8148	1.24904	153.419	-34.096	-31.0907	175.4	-25.1507	-17.676	161.03	-5.59465	-31.3768	
235	1.95833	151.798	20.59	-16.7948	128.356	31.3789	-15.3918	108.358	43.5175	-24.3292	98.6337	55.7267	-27.0288	100.759	-0.192425	-45.4112	87.6206	6.56651	-21.3067	111.172	7.37841	-8.27771	99.0469	-17.9598	-34.582	92.4998	-6.05172	-6.94513	121.179	-0.659774	-3.43855	105.524	-30.991	-20.6663	102.57	-16.8553	2.31904	130.399	-9.23455	1.0267	112.257	-40.2192	-11.5683	114.18	-22.5	8.79279	134.336	-15.8733	3.4833	154.026	-30.9524	-29.6064	175.661	-25.6555	-15.9359	163.195	-6.14842	-33.4276	
236	1.96667	156.489	22.2708	-18.4599	134.249	33.948	-16.4904	113.163	43.3615	-26.8739	100.398	56.5	-33.073	104.595	-0.733992	-47.2703	90.0556	11.1814	-26.4755	116.823	16.5086	-11.7183	101.071	-15.0526	-35.0532	92.0053	-0.843342	-11.5316	126.742	0.896138	-6.27911	103.025	-26.3793	-18.5489	103.376	-11.0669	1.82415	130.477	-4.92872	-0.216094	108.607	-33.9405	-9.60144	112.293	-16.6058	4.56518	137.968	-11.2388	-0.589344	152.258	-35.4594	-25.3153	177.699	-25.2578	-11.3114	164.127	-7.41273	-32.4444	
237	1.975	159.592	23.8482	-19.8075	136.649	37.9882	-19.8565	118.755	46.4236	-28.7998	106.861	58.2367	-34.2118	108.441	1.11785	-49.4314	91.5523	9.42386	-29.063	119.007	15.218	-10.6223	100.012	-12.2891	-35.6098	95.3265	1.89277	-10.4519	127.926	4.26782	-7.26504	102.22	-22.0871	-19.7499	104.33	-5.72978	-2.13094	132.118	-4.06281	0.467052	110.008	-32.536	-9.45743	113.308	-14.3177	8.07021	136.824	-10.4582	0.406184	154.019	-31.5914	-28.4789	177.88	-24.8917	-14.0138	169.439	-6.8531	-32.5789	
238	1.98333	164.835	23.6154	-17.6557	138.844	35.8626	-20.3436	123.375	50.9652	-29.5694	113.553	61.8837	-34.2255	109.113	2.44187	-49.063	93.1481	16.8197	-32.061	117.234	20.1278	-13.0761	102.774	-10.2815	-36.5916	98.1111	3.68386	-9.46185	126.393	6.8957	-6.44921	104.332	-20.0028	-21.853	104.784	-4.07447	-1.09148	136.425	-3.85698	-2.71714	109.778	-31.3163	-7.53304	111.616	-11.5239	4.16905	137.9	-5.56721	0.701232	156.225	-30.4111	-26.9601	178.221	-27.0135	-9.58767	169.441	-6.18319	-33.7538	
239	1.99167	163.625	26.0345	-20.9539	142.919	36.7351	-21.1968	127.23	51.4584	-29.7107	115.388	64.9005	-39.1917	112.101	8.9743	-51.8022	94.8991	18.6578	-32.2349	119.369	23.8587	-13.4529	104.123	-7.38453	-36.7994	95.7336	5.72002	-12.2595	128.778	11.7336	-8.9333	102.651	-17.2157	-20.3072	107.636	0.220963	-0.952626	136.927	-1.51835	-2.45491	111.753	-30.0898	-8.64864	112.154	-8.81206	2.92728	140.621	-6.24442	2.54501	152.075	-28.202	-27.0533	176.758	-24.2562	-13.0553	171.478	-5.97054	-30.8143	
240	2	166.688	22.2947	-19.5381	145.589	42.353	-24.4328	131.054	52.1475	-31.6934	123.371	66.7803	-37.7277	109.814	8.07668	-49.8111	97.385	20.8288	-27.7889	120.318	25.9172	-14.5839	103.016	-4.84912	-35.3783	97.529	11.1139	-14.2735	132	14.0561	-10.6596	105.212	-13.9762	-21.1052	109.14	4.92432	-2.76258	134.227	5.01987	-3.16675	107.736	-24.9313	-6.73854	112.853	-4.61332	3.38101	138.136	-3.81079	0.43731	154.558	-30.693	-23.447	180.156	-28.2567	-9.3633	171.056	-7.67409	-32.9936	
241	2.00833	168.711	22.6584	-21.453	147.316	42.5452	-25.699	133.592	53.3429	-35.2442	124.951	67.5856	-43.6042	113.459	11.0736	-50.2895	98.4742	23.5982	-31.5807	123.331	28.5209	-15.4946	105.277	-1.31284	-36.3664	99.7868	16.2996	-14.8438	130.194	11.8721	-6.58269	105.141	-11.3626	-21.3237	110.293	7.5085	-1.87715	135.891	3.60424	-0.739399	110.058	-23.1187	-8.21357	114.436	-2.3235	4.11963	142.544	-4.06972	-0.00401562	154.836	-29.8482	-24.9672	178.185	-25.4048	-10.3529	170.301	-8.07142	-33.4166	
242	2.01667	170.015	23.3246	-22.4405	150.105	39.7548	-25.3797	139.562	57.4331	-35.6046	132.76	67.7317	-41.5472	118.161	14.8653	-53.3352	101.244	28.0498	-32.7088	125.14	28.2186	-14.274	107.068	0.437228	-36.204	103.627	21.2905	-14.6436	131.573	15.3408	-6.8015	107.556	-9.62313	-21.1574	110.928	11.6148	-3.81348	140.219	3.90011	-2.21934	110.65	-21.0252	-7.97307	117.307	1.91407	5.63985	144.044	-0.1136	-1.461	151.583	-26.1444	-25.2751	178.07	-27.0615	-8.98035	174.396	-6.55702	-30.1853	
243	2.025	175.964	25.4853	-19.9699	155.579	42.8613	-24.8662	143.194	57.3932	-37.0679	141.148	72.1052	-43.8009	114.106	17.1779	-51.6804	104.098	32.6243	-33.1134	127.906	32.8462	-14.8733	109.301	2.45153	-36.8883	101.626	21.7516	-14.9453	134.363	18.6959	-7.58138	107.272	-3.49663	-21.8793	111.808	15.0299	-5.74884	138.367	10.4845	-3.1467	111.807	-14.412	-9.82684	117.864	6.15146	2.62622	139.748	2.54613	-1.14408	149.68	-28.5505	-23.6879	175.757	-25.6719	-8.91069	174.107	-5.67811	-31.9081	
